<svg width="1107" height="693" viewBox="0 0 1107 693" fill="none" xmlns="http://www.w3.org/2000/svg">
<path d="M519.3 554.4C539.1 554.4 554.4 569.7 554.4 588.6V677.7C554.4 685.8 547.2 693 539.1 693H519.3C500.4 693 485.1 676.8 485.1 657.9V570.6C485.1 561.6 477.9 554.4 468 554.4H450C431.1 554.4 415.8 538.2 415.8 519.3V450C415.8 468.9 400.5 485.1 380.7 485.1H86.4C76.5 485.1 69.3 492.3 69.3 501.3V657.9C69.3 676.8 54 693 35.1 693H15.3C7.2 693 2.5481e-06 685.8 2.5481e-06 677.7V519.3C2.5481e-06 500.4 15.3 485.1 35.1 485.1H53.1C62.1 485.1 69.3 477 69.3 468V311.4C69.3 292.5 84.6 277.2 104.4 277.2H122.4C131.4 277.2 138.6 269.1 138.6 260.1V103.5C138.6 84.5999 153.9 69.3 173.7 69.3H191.7C200.7 69.3 207.9 62.1 207.9 52.2V34.2C207.9 15.3 223.2 -3.6478e-05 242.1 -3.6478e-05H311.4C331.2 -3.6478e-05 346.5 15.3 346.5 34.2V121.5C346.5 131.4 353.7 138.6 362.7 138.6H380.7C400.5 138.6 415.8 153.9 415.8 172.8V329.4C415.8 338.4 423 346.5 432 346.5H450C469.8 346.5 485.1 361.8 485.1 380.7V537.3C485.1 546.3 492.3 554.4 501.3 554.4H519.3ZM400.5 415.8C408.6 415.8 415.8 408.6 415.8 400.5V362.7C415.8 353.7 408.6 346.5 398.7 346.5H380.7C361.8 346.5 346.5 330.3 346.5 311.4V154.8C346.5 145.8 339.3 138.6 330.3 138.6H311.4C292.5 138.6 277.2 123.3 277.2 103.5V84.5999C277.2 75.6 270 69.3 261.9 69.3H224.1C215.1 69.3 207.9 76.4999 207.9 85.5V242.1C207.9 261 192.6 277.2 173.7 277.2H154.8C145.8 277.2 138.6 284.4 138.6 293.4V400.5C138.6 408.6 145.8 415.8 153.9 415.8H400.5ZM725.66 693C706.76 693 691.46 677.7 691.46 658.8V640.8C691.46 630.9 684.26 623.7 674.36 623.7H656.36C637.46 623.7 622.16 608.4 622.16 589.5V520.2C622.16 501.3 637.46 485.1 656.36 485.1H674.36C684.26 485.1 691.46 477.9 691.46 468.9V450.9C691.46 432 706.76 416.7 725.66 416.7H1002.86C1021.76 416.7 1037.06 432 1037.06 450.9V294.3C1037.06 285.3 1029.86 278.1 1020.86 278.1H707.66C698.66 278.1 691.46 285.3 691.46 294.3V312.3C691.46 332.1 676.16 347.4 656.36 347.4H637.46C629.36 347.4 622.16 340.2 622.16 332.1V312.3C622.16 293.4 637.46 278.1 656.36 278.1H674.36C684.26 278.1 691.46 270.9 691.46 261.9V243.9C691.46 224.1 706.76 208.8 725.66 208.8H1002.86C1021.76 208.8 1037.06 224.1 1037.06 243.9V261.9C1037.06 270.9 1044.26 278.1 1053.26 278.1H1071.26C1091.06 278.1 1106.36 293.4 1106.36 312.3V520.2C1106.36 539.1 1091.06 554.4 1071.26 554.4H1053.26C1044.26 554.4 1037.06 562.5 1037.06 571.5V658.8C1037.06 677.7 1021.76 693 1002.86 693H725.66ZM707.66 623.7H952.46C961.46 623.7 967.76 617.4 967.76 608.4V589.5C967.76 570.6 983.06 554.4 1002.86 554.4H1020.86C1029.86 554.4 1037.06 547.2 1037.06 538.2V500.4C1037.06 492.3 1030.76 485.1 1021.76 485.1H707.66C698.66 485.1 691.46 493.2 691.46 502.2V607.5C691.46 616.5 698.66 623.7 707.66 623.7Z" fill="url(#paint0_linear_2145_2)"/>
<defs>
<linearGradient id="paint0_linear_2145_2" x1="551.5" y1="0" x2="551.5" y2="720" gradientUnits="userSpaceOnUse">
<stop stop-color="white"/>
<stop offset="1" stop-color="#9E9E9E"/>
</linearGradient>
</defs>
</svg>
